<mxfile host="app.diagrams.net" modified="2024-03-13T09:21:37.394Z" agent="Mozilla/5.0 (X11; Linux x86_64) AppleWebKit/537.36 (KHTML, like Gecko) Chrome/122.0.0.0 Safari/537.36" etag="KP4qQ5gKiaQkyQ_vYfTo" version="24.0.1" type="github">
  <diagram name="Page-1" id="PqVycLIDRC53w06UF1cB">
    <mxGraphModel dx="1418" dy="743" grid="1" gridSize="10" guides="1" tooltips="1" connect="1" arrows="1" fold="1" page="1" pageScale="1" pageWidth="850" pageHeight="1100" math="0" shadow="0">
      <root>
        <mxCell id="0" />
        <mxCell id="1" parent="0" />
        <mxCell id="6KE7nwazPGSkjoAYlFDG-3" value="" style="endArrow=none;html=1;rounded=0;" parent="1" target="6KE7nwazPGSkjoAYlFDG-16" edge="1">
          <mxGeometry width="50" height="50" relative="1" as="geometry">
            <mxPoint x="10" y="93" as="sourcePoint" />
            <mxPoint x="-20.99999999999818" y="91.93" as="targetPoint" />
          </mxGeometry>
        </mxCell>
        <mxCell id="6KE7nwazPGSkjoAYlFDG-4" value="" style="endArrow=none;html=1;rounded=0;" parent="1" edge="1">
          <mxGeometry width="50" height="50" relative="1" as="geometry">
            <mxPoint x="139" y="92" as="sourcePoint" />
            <mxPoint x="384" y="92" as="targetPoint" />
          </mxGeometry>
        </mxCell>
        <mxCell id="6KE7nwazPGSkjoAYlFDG-5" value="" style="endArrow=none;html=1;rounded=0;" parent="1" source="6KE7nwazPGSkjoAYlFDG-8" target="6KE7nwazPGSkjoAYlFDG-9" edge="1">
          <mxGeometry width="50" height="50" relative="1" as="geometry">
            <mxPoint x="141" y="72" as="sourcePoint" />
            <mxPoint x="381" y="72" as="targetPoint" />
            <Array as="points">
              <mxPoint x="179" y="32" />
              <mxPoint x="339" y="32" />
            </Array>
          </mxGeometry>
        </mxCell>
        <mxCell id="6KE7nwazPGSkjoAYlFDG-10" value="Anfang" style="text;html=1;align=center;verticalAlign=middle;whiteSpace=wrap;rounded=0;" parent="1" vertex="1">
          <mxGeometry x="9" y="92" width="60" height="30" as="geometry" />
        </mxCell>
        <mxCell id="6KE7nwazPGSkjoAYlFDG-8" value="1" style="ellipse;whiteSpace=wrap;html=1;aspect=fixed;" parent="1" vertex="1">
          <mxGeometry x="104" y="75" width="35" height="35" as="geometry" />
        </mxCell>
        <mxCell id="6KE7nwazPGSkjoAYlFDG-9" value="2" style="ellipse;whiteSpace=wrap;html=1;aspect=fixed;" parent="1" vertex="1">
          <mxGeometry x="384" y="75" width="35" height="35" as="geometry" />
        </mxCell>
        <mxCell id="6KE7nwazPGSkjoAYlFDG-11" value="Ablenkung" style="text;html=1;align=center;verticalAlign=middle;whiteSpace=wrap;rounded=0;rotation=-45;" parent="1" vertex="1">
          <mxGeometry x="111" y="32" width="60" height="30" as="geometry" />
        </mxCell>
        <mxCell id="6KE7nwazPGSkjoAYlFDG-12" value="Gerade" style="text;html=1;align=center;verticalAlign=middle;whiteSpace=wrap;rounded=0;" parent="1" vertex="1">
          <mxGeometry x="139" y="92" width="60" height="30" as="geometry" />
        </mxCell>
        <mxCell id="6KE7nwazPGSkjoAYlFDG-13" value="Gerade" style="text;html=1;align=center;verticalAlign=middle;whiteSpace=wrap;rounded=0;" parent="1" vertex="1">
          <mxGeometry x="324" y="92" width="60" height="30" as="geometry" />
        </mxCell>
        <mxCell id="6KE7nwazPGSkjoAYlFDG-14" value="Anfang" style="text;html=1;align=center;verticalAlign=middle;whiteSpace=wrap;rounded=0;" parent="1" vertex="1">
          <mxGeometry x="454" y="92" width="60" height="30" as="geometry" />
        </mxCell>
        <mxCell id="6KE7nwazPGSkjoAYlFDG-15" value="Ablenkung" style="text;html=1;align=center;verticalAlign=middle;whiteSpace=wrap;rounded=0;rotation=45;" parent="1" vertex="1">
          <mxGeometry x="351" y="32" width="60" height="30" as="geometry" />
        </mxCell>
        <mxCell id="6KE7nwazPGSkjoAYlFDG-16" value="1" style="ellipse;whiteSpace=wrap;html=1;aspect=fixed;" parent="1" vertex="1">
          <mxGeometry x="69" y="75" width="35" height="35" as="geometry" />
        </mxCell>
        <mxCell id="6KE7nwazPGSkjoAYlFDG-17" value="2" style="ellipse;whiteSpace=wrap;html=1;aspect=fixed;" parent="1" vertex="1">
          <mxGeometry x="419" y="75" width="35" height="35" as="geometry" />
        </mxCell>
        <mxCell id="6KE7nwazPGSkjoAYlFDG-18" value="" style="endArrow=none;html=1;rounded=0;" parent="1" source="6KE7nwazPGSkjoAYlFDG-17" edge="1">
          <mxGeometry width="50" height="50" relative="1" as="geometry">
            <mxPoint x="549" y="102" as="sourcePoint" />
            <mxPoint x="510" y="93" as="targetPoint" />
          </mxGeometry>
        </mxCell>
        <mxCell id="gZCIgl4EyGBLnfhaR0F1-2" value="2" style="text;html=1;align=center;verticalAlign=middle;whiteSpace=wrap;rounded=0;" vertex="1" parent="1">
          <mxGeometry x="230" y="10" width="60" height="30" as="geometry" />
        </mxCell>
        <mxCell id="gZCIgl4EyGBLnfhaR0F1-3" value="1" style="text;html=1;align=center;verticalAlign=middle;whiteSpace=wrap;rounded=0;" vertex="1" parent="1">
          <mxGeometry x="230" y="68" width="60" height="30" as="geometry" />
        </mxCell>
      </root>
    </mxGraphModel>
  </diagram>
</mxfile>
